<?xml version="1.0" encoding="utf-8"?>
<!-- Generator: Adobe Illustrator 17.0.0, SVG Export Plug-In . SVG Version: 6.00 Build 0)  -->
<!DOCTYPE svg PUBLIC "-//W3C//DTD SVG 1.1//EN" "http://www.w3.org/Graphics/SVG/1.1/DTD/svg11.dtd">
<svg version="1.1" id="Layer_1" xmlns="http://www.w3.org/2000/svg" xmlns:xlink="http://www.w3.org/1999/xlink" x="0px" y="0px"
	 width="233.804px" height="46.007px" viewBox="0 0 233.804 46.007" enable-background="new 0 0 233.804 46.007"
	 xml:space="preserve">
<g>
	<g enable-background="new    ">
		<path fill="#8DD1E0" d="M0,7.417h23.65v2.006H2.323v15.098h19.216v2.006H2.323v18.582H0V7.417z"/>
		<path fill="#8DD1E0" d="M24.02,31.542c0-1.935,0.272-3.756,0.818-5.464c0.545-1.707,1.346-3.211,2.402-4.514
			c1.056-1.302,2.357-2.331,3.906-3.088c1.548-0.756,3.326-1.135,5.332-1.135c2.006,0,3.783,0.378,5.332,1.135
			c1.548,0.757,2.851,1.787,3.907,3.088c1.056,1.302,1.855,2.807,2.402,4.514c0.545,1.708,0.818,3.529,0.818,5.464
			c0,1.936-0.273,3.766-0.818,5.491c-0.546,1.725-1.346,3.229-2.402,4.513c-1.056,1.285-2.358,2.306-3.907,3.062
			c-1.549,0.756-3.326,1.135-5.332,1.135c-2.006,0-3.784-0.379-5.332-1.135c-1.549-0.757-2.851-1.777-3.906-3.062
			c-1.056-1.284-1.857-2.788-2.402-4.513C24.292,35.308,24.02,33.478,24.02,31.542z M26.025,31.542c0,1.62,0.229,3.176,0.686,4.672
			c0.457,1.496,1.126,2.824,2.006,3.985c0.879,1.161,1.971,2.085,3.273,2.771c1.302,0.687,2.798,1.029,4.487,1.029
			c1.689,0,3.185-0.343,4.487-1.029c1.302-0.687,2.393-1.61,3.273-2.771c0.879-1.161,1.548-2.489,2.006-3.985
			c0.457-1.496,0.686-3.053,0.686-4.672c0-1.619-0.229-3.176-0.686-4.672c-0.458-1.496-1.127-2.825-2.006-3.986
			c-0.88-1.162-1.971-2.085-3.273-2.771c-1.302-0.687-2.798-1.029-4.487-1.029c-1.689,0-3.186,0.343-4.487,1.029
			c-1.302,0.686-2.394,1.61-3.273,2.771c-0.88,1.161-1.549,2.49-2.006,3.986C26.254,28.367,26.025,29.924,26.025,31.542z"/>
		<path fill="#8DD1E0" d="M52.367,31.542c0-1.935,0.272-3.756,0.818-5.464c0.545-1.707,1.346-3.211,2.402-4.514
			c1.056-1.302,2.357-2.331,3.906-3.088c1.548-0.756,3.326-1.135,5.332-1.135c2.006,0,3.783,0.378,5.332,1.135
			c1.548,0.757,2.851,1.787,3.907,3.088c1.056,1.302,1.855,2.807,2.402,4.514c0.545,1.708,0.818,3.529,0.818,5.464
			c0,1.936-0.273,3.766-0.818,5.491c-0.546,1.725-1.346,3.229-2.402,4.513c-1.056,1.285-2.358,2.306-3.907,3.062
			c-1.549,0.756-3.326,1.135-5.332,1.135c-2.006,0-3.784-0.379-5.332-1.135c-1.549-0.757-2.851-1.777-3.906-3.062
			c-1.056-1.284-1.857-2.788-2.402-4.513C52.639,35.308,52.367,33.478,52.367,31.542z M54.373,31.542
			c0,1.62,0.229,3.176,0.686,4.672c0.457,1.496,1.126,2.824,2.006,3.985c0.879,1.161,1.971,2.085,3.273,2.771
			c1.302,0.687,2.798,1.029,4.487,1.029c1.689,0,3.185-0.343,4.487-1.029c1.302-0.687,2.393-1.61,3.273-2.771
			c0.879-1.161,1.548-2.489,2.006-3.985c0.457-1.496,0.686-3.053,0.686-4.672c0-1.619-0.229-3.176-0.686-4.672
			c-0.458-1.496-1.127-2.825-2.006-3.986c-0.88-1.162-1.971-2.085-3.273-2.771c-1.302-0.687-2.798-1.029-4.487-1.029
			c-1.689,0-3.186,0.343-4.487,1.029c-1.302,0.686-2.394,1.61-3.273,2.771c-0.88,1.161-1.549,2.49-2.006,3.986
			C54.602,28.367,54.373,29.924,54.373,31.542z"/>
		<path fill="#8DD1E0" d="M91.958,19.717h-5.913v18.952c0,1.092,0.123,1.953,0.37,2.587c0.246,0.634,0.625,1.118,1.135,1.452
			c0.51,0.335,1.126,0.537,1.848,0.606c0.721,0.071,1.558,0.089,2.508,0.053v1.742c-1.021,0.07-2.015,0.062-2.983-0.026
			c-0.968-0.087-1.821-0.352-2.56-0.792c-0.739-0.439-1.329-1.1-1.769-1.979c-0.44-0.879-0.625-2.093-0.554-3.643V19.717h-5.015
			v-1.742h5.015V9.529h2.006v8.446h5.913V19.717z"/>
		<path fill="#8DD1E0" d="M94.598,26.263c0-2.745,0.404-5.323,1.214-7.733c0.809-2.411,1.979-4.505,3.51-6.282
			c1.531-1.777,3.414-3.176,5.649-4.197c2.234-1.021,4.759-1.531,7.575-1.531c2.217,0,4.135,0.29,5.754,0.871
			c1.618,0.581,2.982,1.303,4.091,2.165c1.109,0.863,2.015,1.804,2.719,2.824c0.704,1.021,1.241,1.98,1.61,2.877
			c0.369,0.897,0.624,1.672,0.766,2.323c0.14,0.652,0.211,1.012,0.211,1.083h-2.322c-0.247-1.584-0.758-3-1.531-4.25
			c-0.774-1.249-1.742-2.314-2.903-3.194c-1.161-0.879-2.455-1.548-3.88-2.006c-1.426-0.457-2.931-0.686-4.514-0.686
			c-2.464,0-4.664,0.475-6.599,1.425c-1.936,0.95-3.573,2.226-4.91,3.827C99.7,15.38,98.68,17.254,97.976,19.4
			c-0.704,2.147-1.056,4.435-1.056,6.863c0,2.429,0.352,4.717,1.056,6.863c0.704,2.147,1.724,4.021,3.062,5.622
			c1.337,1.603,2.974,2.877,4.91,3.828c1.935,0.95,4.135,1.425,6.599,1.425c1.83,0,3.545-0.378,5.147-1.135
			c1.602-0.757,3-1.76,4.197-3.009c1.196-1.249,2.155-2.692,2.877-4.329c0.721-1.637,1.135-3.334,1.24-5.095h2.323
			c-0.211,2.253-0.766,4.329-1.663,6.229s-2.042,3.546-3.432,4.936c-1.391,1.392-3.001,2.474-4.83,3.247
			c-1.831,0.773-3.784,1.161-5.86,1.161c-2.816,0-5.341-0.511-7.575-1.53c-2.235-1.021-4.118-2.42-5.649-4.197
			c-1.531-1.776-2.701-3.871-3.51-6.282C95.002,31.587,94.598,29.008,94.598,26.263z"/>
		<path fill="#8DD1E0" d="M135.299,7.417v37.692h-2.007V7.417H135.299z"/>
		<path fill="#8DD1E0" d="M142.161,12.854V7.417h2.006v5.437H142.161z M142.161,45.109V17.975h2.006v27.134H142.161z"/>
		<path fill="#8DD1E0" d="M150.555,17.975h2.007v5.807h0.105c0.352-1.021,0.853-1.927,1.504-2.719s1.407-1.469,2.271-2.032
			c0.861-0.562,1.803-0.985,2.824-1.267c1.021-0.281,2.059-0.422,3.114-0.422c1.584,0,2.93,0.194,4.039,0.581
			c1.108,0.388,2.014,0.897,2.719,1.531c0.703,0.633,1.258,1.346,1.662,2.138s0.695,1.593,0.871,2.402
			c0.176,0.81,0.281,1.593,0.317,2.349c0.034,0.757,0.053,1.417,0.053,1.98v16.787h-2.006V27.952c0-0.668-0.054-1.513-0.159-2.534
			c-0.105-1.02-0.414-1.997-0.924-2.93c-0.511-0.932-1.285-1.733-2.322-2.402c-1.039-0.668-2.473-1.003-4.303-1.003
			c-1.549,0-2.922,0.282-4.117,0.845c-1.197,0.563-2.218,1.346-3.062,2.349c-0.845,1.003-1.486,2.2-1.927,3.589
			c-0.44,1.391-0.659,2.913-0.659,4.566v14.676h-2.007V17.975z"/>
		<path fill="#8DD1E0" d="M178.428,12.854V7.417h2.006v5.437H178.428z M178.428,45.109V17.975h2.006v27.134H178.428z"/>
		<path fill="#8DD1E0" d="M207.252,26.368c-0.106-1.196-0.414-2.251-0.924-3.167c-0.511-0.915-1.171-1.671-1.98-2.27
			c-0.81-0.598-1.751-1.056-2.824-1.373c-1.073-0.317-2.226-0.475-3.457-0.475c-1.689,0-3.186,0.343-4.487,1.029
			c-1.303,0.686-2.394,1.602-3.273,2.745c-0.88,1.144-1.549,2.446-2.006,3.906c-0.458,1.461-0.687,2.965-0.687,4.514
			c0,1.831,0.212,3.52,0.634,5.068s1.073,2.895,1.953,4.038c0.879,1.145,1.971,2.032,3.273,2.666c1.301,0.634,2.832,0.95,4.593,0.95
			c1.267,0,2.437-0.211,3.51-0.634c1.073-0.422,2.023-1.003,2.851-1.742c0.827-0.738,1.505-1.627,2.033-2.665
			c0.527-1.038,0.879-2.173,1.056-3.405h2.006c-0.211,1.619-0.651,3.062-1.319,4.329c-0.669,1.267-1.514,2.331-2.534,3.193
			c-1.021,0.863-2.183,1.522-3.484,1.979c-1.303,0.457-2.675,0.687-4.117,0.687c-2.218,0-4.109-0.396-5.676-1.188
			s-2.851-1.856-3.854-3.194c-1.003-1.337-1.742-2.877-2.217-4.619c-0.476-1.742-0.713-3.563-0.713-5.464
			c0-1.9,0.272-3.695,0.818-5.385c0.545-1.689,1.346-3.167,2.402-4.434c1.056-1.267,2.357-2.27,3.906-3.009
			c1.548-0.739,3.325-1.108,5.332-1.108c1.478,0,2.858,0.185,4.144,0.554c1.284,0.37,2.429,0.924,3.432,1.663
			c1.003,0.739,1.821,1.681,2.454,2.824c0.634,1.144,1.021,2.473,1.162,3.985H207.252z"/>
	</g>
	<polygon fill="none" stroke="#8DD1E0" stroke-width="3" stroke-miterlimit="10" points="225.474,8.33 225.474,1.5 218.643,1.5 
		218.643,8.33 211.812,8.33 211.812,15.161 218.643,15.161 218.643,21.992 225.474,21.992 225.474,15.161 232.304,15.161 
		232.304,8.33 	"/>
</g>
</svg>
